<mxfile host="app.diagrams.net" modified="2022-08-16T02:54:01.671Z" agent="5.0 (Windows NT 10.0; Win64; x64) AppleWebKit/537.36 (KHTML, like Gecko) Chrome/104.0.0.0 Safari/537.36" etag="9V3Fpy_dDFOmhza050G2" version="20.2.3" type="github">
  <diagram id="gct35c9mb0id-FJxyAaq" name="Page-1">
    <mxGraphModel dx="2249" dy="762" grid="1" gridSize="10" guides="1" tooltips="1" connect="1" arrows="1" fold="1" page="1" pageScale="1" pageWidth="827" pageHeight="1169" math="0" shadow="0">
      <root>
        <mxCell id="0" />
        <mxCell id="1" parent="0" />
        <mxCell id="cXgl99MqB2E2107KxEMa-10" value="" style="edgeStyle=orthogonalEdgeStyle;rounded=0;orthogonalLoop=1;jettySize=auto;html=1;fontSize=20;" edge="1" parent="1" source="cXgl99MqB2E2107KxEMa-1" target="cXgl99MqB2E2107KxEMa-7">
          <mxGeometry relative="1" as="geometry" />
        </mxCell>
        <mxCell id="cXgl99MqB2E2107KxEMa-1" value="SM4-ECB" style="rounded=1;whiteSpace=wrap;html=1;" vertex="1" parent="1">
          <mxGeometry x="95" y="170" width="120" height="60" as="geometry" />
        </mxCell>
        <mxCell id="cXgl99MqB2E2107KxEMa-6" value="" style="edgeStyle=orthogonalEdgeStyle;rounded=0;orthogonalLoop=1;jettySize=auto;html=1;fontSize=16;" edge="1" parent="1" source="cXgl99MqB2E2107KxEMa-3" target="cXgl99MqB2E2107KxEMa-1">
          <mxGeometry relative="1" as="geometry" />
        </mxCell>
        <mxCell id="cXgl99MqB2E2107KxEMa-3" value="i" style="text;html=1;align=center;verticalAlign=middle;resizable=0;points=[];autosize=1;strokeColor=none;fillColor=none;fontStyle=3;fontSize=16;" vertex="1" parent="1">
          <mxGeometry x="-10" y="185" width="30" height="30" as="geometry" />
        </mxCell>
        <mxCell id="cXgl99MqB2E2107KxEMa-5" value="" style="edgeStyle=orthogonalEdgeStyle;rounded=0;orthogonalLoop=1;jettySize=auto;html=1;fontSize=16;" edge="1" parent="1" target="cXgl99MqB2E2107KxEMa-1">
          <mxGeometry relative="1" as="geometry">
            <mxPoint x="155" y="100" as="sourcePoint" />
          </mxGeometry>
        </mxCell>
        <mxCell id="cXgl99MqB2E2107KxEMa-4" value="Key&lt;sub&gt;2&lt;/sub&gt;" style="text;html=1;align=center;verticalAlign=middle;resizable=0;points=[];autosize=1;strokeColor=none;fillColor=none;fontSize=16;" vertex="1" parent="1">
          <mxGeometry x="181" y="60" width="60" height="40" as="geometry" />
        </mxCell>
        <mxCell id="cXgl99MqB2E2107KxEMa-12" value="" style="edgeStyle=orthogonalEdgeStyle;rounded=0;orthogonalLoop=1;jettySize=auto;html=1;fontSize=20;" edge="1" parent="1" source="cXgl99MqB2E2107KxEMa-7" target="cXgl99MqB2E2107KxEMa-11">
          <mxGeometry relative="1" as="geometry" />
        </mxCell>
        <mxCell id="cXgl99MqB2E2107KxEMa-33" style="edgeStyle=orthogonalEdgeStyle;rounded=0;orthogonalLoop=1;jettySize=auto;html=1;entryX=0;entryY=0.5;entryDx=0;entryDy=0;fontSize=20;elbow=vertical;" edge="1" parent="1" source="cXgl99MqB2E2107KxEMa-7" target="cXgl99MqB2E2107KxEMa-23">
          <mxGeometry relative="1" as="geometry" />
        </mxCell>
        <mxCell id="cXgl99MqB2E2107KxEMa-7" value="" style="shape=image;html=1;verticalAlign=top;verticalLabelPosition=bottom;labelBackgroundColor=#ffffff;imageAspect=0;aspect=fixed;image=https://cdn0.iconfinder.com/data/icons/user-interface-1-32/32/add-item-128.png;fontSize=16;rotation=45;" vertex="1" parent="1">
          <mxGeometry x="279" y="190" width="20" height="20" as="geometry" />
        </mxCell>
        <mxCell id="cXgl99MqB2E2107KxEMa-9" value="" style="edgeStyle=orthogonalEdgeStyle;rounded=0;orthogonalLoop=1;jettySize=auto;html=1;fontSize=20;" edge="1" parent="1" source="cXgl99MqB2E2107KxEMa-8" target="cXgl99MqB2E2107KxEMa-7">
          <mxGeometry relative="1" as="geometry" />
        </mxCell>
        <mxCell id="cXgl99MqB2E2107KxEMa-8" value="&lt;font style=&quot;&quot;&gt;&lt;b style=&quot;&quot;&gt;&lt;font style=&quot;font-size: 20px;&quot;&gt;a&lt;/font&gt;&lt;/b&gt;&lt;sup style=&quot;&quot;&gt;&lt;font style=&quot;font-size: 11px;&quot;&gt;&lt;b&gt;j&lt;/b&gt;&lt;/font&gt;&lt;/sup&gt;&lt;/font&gt;" style="text;html=1;align=center;verticalAlign=middle;resizable=0;points=[];autosize=1;strokeColor=none;fillColor=none;fontSize=16;" vertex="1" parent="1">
          <mxGeometry x="269" y="70" width="40" height="40" as="geometry" />
        </mxCell>
        <mxCell id="cXgl99MqB2E2107KxEMa-16" value="" style="edgeStyle=orthogonalEdgeStyle;rounded=0;orthogonalLoop=1;jettySize=auto;html=1;fontSize=20;" edge="1" parent="1" source="cXgl99MqB2E2107KxEMa-11" target="cXgl99MqB2E2107KxEMa-15">
          <mxGeometry relative="1" as="geometry" />
        </mxCell>
        <mxCell id="cXgl99MqB2E2107KxEMa-11" value="" style="shape=image;html=1;verticalAlign=top;verticalLabelPosition=bottom;labelBackgroundColor=#ffffff;imageAspect=0;aspect=fixed;image=https://cdn0.iconfinder.com/data/icons/user-interface-1-32/32/add-item-128.png;fontSize=20;" vertex="1" parent="1">
          <mxGeometry x="414" y="190" width="20" height="20" as="geometry" />
        </mxCell>
        <mxCell id="cXgl99MqB2E2107KxEMa-14" value="" style="edgeStyle=orthogonalEdgeStyle;rounded=0;orthogonalLoop=1;jettySize=auto;html=1;fontSize=20;" edge="1" parent="1" source="cXgl99MqB2E2107KxEMa-13" target="cXgl99MqB2E2107KxEMa-11">
          <mxGeometry relative="1" as="geometry" />
        </mxCell>
        <mxCell id="cXgl99MqB2E2107KxEMa-13" value="P" style="text;html=1;align=center;verticalAlign=middle;resizable=0;points=[];autosize=1;strokeColor=none;fillColor=none;fontSize=20;" vertex="1" parent="1">
          <mxGeometry x="404" y="70" width="40" height="40" as="geometry" />
        </mxCell>
        <mxCell id="cXgl99MqB2E2107KxEMa-24" value="" style="edgeStyle=orthogonalEdgeStyle;rounded=0;orthogonalLoop=1;jettySize=auto;html=1;fontSize=20;" edge="1" parent="1">
          <mxGeometry relative="1" as="geometry">
            <mxPoint x="422" y="360" as="sourcePoint" />
            <mxPoint x="402" y="420" as="targetPoint" />
          </mxGeometry>
        </mxCell>
        <mxCell id="cXgl99MqB2E2107KxEMa-15" value="SM4-ECB" style="rounded=1;whiteSpace=wrap;html=1;" vertex="1" parent="1">
          <mxGeometry x="364" y="300" width="120" height="60" as="geometry" />
        </mxCell>
        <mxCell id="cXgl99MqB2E2107KxEMa-17" value="PP" style="text;html=1;align=center;verticalAlign=middle;resizable=0;points=[];autosize=1;strokeColor=none;fillColor=none;fontSize=20;" vertex="1" parent="1">
          <mxGeometry x="421" y="230" width="50" height="40" as="geometry" />
        </mxCell>
        <mxCell id="cXgl99MqB2E2107KxEMa-22" value="" style="edgeStyle=orthogonalEdgeStyle;rounded=0;orthogonalLoop=1;jettySize=auto;html=1;fontSize=20;" edge="1" parent="1">
          <mxGeometry relative="1" as="geometry">
            <mxPoint x="531" y="330" as="sourcePoint" />
            <mxPoint x="487" y="330" as="targetPoint" />
          </mxGeometry>
        </mxCell>
        <mxCell id="cXgl99MqB2E2107KxEMa-18" value="Key&lt;sub&gt;1&lt;/sub&gt;" style="text;html=1;align=center;verticalAlign=middle;resizable=0;points=[];autosize=1;strokeColor=none;fillColor=none;fontSize=20;" vertex="1" parent="1">
          <mxGeometry x="528" y="310" width="70" height="40" as="geometry" />
        </mxCell>
        <mxCell id="cXgl99MqB2E2107KxEMa-27" value="" style="edgeStyle=orthogonalEdgeStyle;rounded=0;orthogonalLoop=1;jettySize=auto;html=1;fontSize=20;" edge="1" parent="1" source="cXgl99MqB2E2107KxEMa-23" target="cXgl99MqB2E2107KxEMa-26">
          <mxGeometry relative="1" as="geometry" />
        </mxCell>
        <mxCell id="cXgl99MqB2E2107KxEMa-23" value="" style="shape=image;html=1;verticalAlign=top;verticalLabelPosition=bottom;labelBackgroundColor=#ffffff;imageAspect=0;aspect=fixed;image=https://cdn0.iconfinder.com/data/icons/user-interface-1-32/32/add-item-128.png;fontSize=20;" vertex="1" parent="1">
          <mxGeometry x="394" y="420" width="20" height="20" as="geometry" />
        </mxCell>
        <mxCell id="cXgl99MqB2E2107KxEMa-25" value="CC" style="text;html=1;align=center;verticalAlign=middle;resizable=0;points=[];autosize=1;strokeColor=none;fillColor=none;fontSize=20;" vertex="1" parent="1">
          <mxGeometry x="410" y="370" width="50" height="40" as="geometry" />
        </mxCell>
        <mxCell id="cXgl99MqB2E2107KxEMa-26" value="C" style="text;html=1;align=center;verticalAlign=middle;resizable=0;points=[];autosize=1;strokeColor=none;fillColor=none;fontSize=20;" vertex="1" parent="1">
          <mxGeometry x="384" y="480" width="40" height="40" as="geometry" />
        </mxCell>
        <mxCell id="cXgl99MqB2E2107KxEMa-28" value="1) T&amp;nbsp;" style="text;html=1;align=center;verticalAlign=middle;resizable=0;points=[];autosize=1;strokeColor=none;fillColor=none;fontSize=20;" vertex="1" parent="1">
          <mxGeometry x="80" y="540" width="60" height="40" as="geometry" />
        </mxCell>
        <mxCell id="cXgl99MqB2E2107KxEMa-29" value="T" style="text;html=1;align=center;verticalAlign=middle;resizable=0;points=[];autosize=1;strokeColor=none;fillColor=none;fontSize=20;" vertex="1" parent="1">
          <mxGeometry x="300" y="195" width="40" height="40" as="geometry" />
        </mxCell>
      </root>
    </mxGraphModel>
  </diagram>
</mxfile>
